HIERARCHY
ROOT Hips
{
 OFFSET 0.000000 0.000000 0.000000
 CHANNELS 6 Xposition Yposition Zposition Yrotation Xrotation Zrotation
 JOINT Chest
 {
  OFFSET 0.000000 9.585900 0.002600
  CHANNELS 3 Yrotation Xrotation Zrotation
  JOINT Chest2
  {
   OFFSET 0.000000 9.601200 -0.005300
   CHANNELS 3 Yrotation Xrotation Zrotation
   JOINT Chest3
   {
    OFFSET 0.000000 9.561800 0.000000
    CHANNELS 3 Yrotation Xrotation Zrotation
    JOINT Chest4
    {
     OFFSET 0.000000 9.552100 0.000000
     CHANNELS 3 Yrotation Xrotation Zrotation
     JOINT Neck
     {
      OFFSET 0.000000 14.453000 0.000000
      CHANNELS 3 Yrotation Xrotation Zrotation
      JOINT Head
      {
       OFFSET 0.000000 8.936500 -0.011300
       CHANNELS 3 Yrotation Xrotation Zrotation
       End Site
       {
        OFFSET 0.000000 17.073600 -0.006000
       }
      }
     }
     JOINT RightCollar
     {
      OFFSET -2.921100 9.558500 0.000000
      CHANNELS 3 Yrotation Xrotation Zrotation
      JOINT RightShoulder
      {
       OFFSET -13.519700 0.000000 0.000000
       CHANNELS 3 Yrotation Xrotation Zrotation
       JOINT RightElbow
       {
        OFFSET 0.000000 -29.696600 0.000000
        CHANNELS 3 Yrotation Xrotation Zrotation
        JOINT RightWrist
        {
         OFFSET 0.000000 -24.004700 0.000000
         CHANNELS 3 Yrotation Xrotation Zrotation
         End Site
         {
          OFFSET 0.000000 -17.728500 0.000000
         }
        }
       }
      }
     }
     JOINT LeftCollar
     {
      OFFSET 2.921100 9.558500 0.000000
      CHANNELS 3 Yrotation Xrotation Zrotation
      JOINT LeftShoulder
      {
       OFFSET 13.519700 0.000000 0.000000
       CHANNELS 3 Yrotation Xrotation Zrotation
       JOINT LeftElbow
       {
        OFFSET 0.000000 -29.696600 0.000000
        CHANNELS 3 Yrotation Xrotation Zrotation
        JOINT LeftWrist
        {
         OFFSET 0.000000 -24.004700 0.000000
         CHANNELS 3 Yrotation Xrotation Zrotation
         End Site
         {
          OFFSET 0.000000 -17.728500 0.000000
         }
        }
       }
      }
     }
    }
   }
  }
 }
 JOINT RightHip
 {
  OFFSET -7.771700 -0.012900 -0.001300
  CHANNELS 3 Yrotation Xrotation Zrotation
  JOINT RightKnee
  {
   OFFSET 0.000000 -40.869800 0.001200
   CHANNELS 3 Yrotation Xrotation Zrotation
   JOINT RightAnkle
   {
    OFFSET 0.000000 -39.717900 0.002100
    CHANNELS 3 Yrotation Xrotation Zrotation
    JOINT RightToe
    {
     OFFSET 0.000000 -4.965400 11.033500
     CHANNELS 3 Yrotation Xrotation Zrotation
     End Site
     {
      OFFSET 0.000000 -1.423100 5.872300
     }
    }
   }
  }
 }
 JOINT LeftHip
 {
  OFFSET 7.771700 -0.012900 -0.001300
  CHANNELS 3 Yrotation Xrotation Zrotation
  JOINT LeftKnee
  {
   OFFSET 0.000000 -40.869800 0.001200
   CHANNELS 3 Yrotation Xrotation Zrotation
   JOINT LeftAnkle
   {
    OFFSET 0.000000 -39.717900 0.002100
    CHANNELS 3 Yrotation Xrotation Zrotation
    JOINT LeftToe
    {
     OFFSET 0.000000 -4.965400 11.033500
     CHANNELS 3 Yrotation Xrotation Zrotation
     End Site
     {
      OFFSET 0.000000 -1.423100 5.872300
     }
    }
   }
  }
 }
}
MOTION
Frames: 12
Frame Time: 0.008333
-60.585537 43.839068 19.132368 174.203579 -22.819071 -1.336937 -0.095298 16.385339 2.845971 -0.051175 1.680102 0.346501 -0.074480 2.808041 0.578923 -0.078311 14.473208 2.998082 -0.482136 9.454930 -5.538464 0.792287 -15.703496 -5.953513 8.048182 2.558600 -4.895068 -12.925883 -9.184232 -5.273587 -118.386995 -55.718810 143.771273 -17.319534 1.869189 -43.463102 -13.640221 -0.172300 -5.113749 15.163973 -8.909750 3.347258 130.026391 -54.467406 -161.149129 22.383827 11.282707 35.733261 -6.702077 -68.168449 14.557495 -144.861246 65.195117 -142.705463 -9.156213 -27.495332 7.022623 0.257830 -0.918228 0.143087 4.637156 -56.741169 0.338650 175.935920 61.049590 176.289024 -1.529949 -39.333881 2.830722 0.015449 0.109314 0.023576
-60.589254 43.838521 19.131667 174.210247 -22.833471 -1.344512 -0.098492 16.400393 2.851679 -0.047515 1.683551 0.347682 -0.073727 2.810812 0.579629 -0.073979 14.479424 3.000990 -0.489530 9.461163 -5.538557 0.788889 -15.706339 -5.953280 8.050006 2.532500 -4.915570 -12.917172 -9.161177 -5.304234 -118.276082 -55.719004 143.733458 -17.320032 1.892072 -43.421215 -13.673074 -0.222244 -5.105305 15.125449 -8.907352 3.427266 129.839541 -54.472708 -161.033109 22.387257 11.313063 35.659544 -6.710563 -68.155456 14.560212 -144.848133 65.195732 -142.693539 -9.149332 -27.444468 7.000776 0.256862 -0.956770 0.159905 4.626610 -56.729069 0.347920 175.943985 61.047159 176.292964 -1.531911 -39.337277 2.836588 0.015064 0.107216 0.021525
-60.589386 43.834545 19.138433 174.172467 -22.800302 -1.364303 -0.049177 16.367617 2.888005 -0.043214 1.684713 0.349435 -0.074470 2.815568 0.580235 -0.066447 14.494360 3.005447 -0.497765 9.509350 -5.536773 0.778798 -15.712931 -5.950770 8.054293 2.478528 -4.957219 -12.930363 -9.118904 -5.289270 -118.168463 -55.740958 143.721883 -17.318839 1.902182 -43.390459 -13.710670 -0.282013 -5.096793 15.089127 -8.908632 3.508447 129.629284 -54.471817 -160.899295 22.388686 11.347244 35.597138 -6.737094 -68.195466 14.624155 -144.806741 65.199129 -142.652070 -9.070476 -27.435180 6.978428 0.198626 -0.940314 0.152663 4.631212 -56.774710 0.396167 175.947843 61.037599 176.303770 -1.534145 -39.343233 2.840185 0.014225 0.106669 0.018976
-60.592756 43.832616 19.138078 174.167933 -22.806249 -1.375453 -0.035786 16.370112 2.904562 -0.047126 1.687565 0.348330 -0.072902 2.817024 0.581098 -0.064644 14.499690 3.006789 -0.500758 9.533815 -5.536666 0.774097 -15.685241 -5.948369 8.061238 2.458399 -4.977104 -12.876869 -9.091075 -5.374520 -118.074759 -55.693877 143.655962 -17.313209 1.903986 -43.363366 -13.737722 -0.324879 -5.096315 15.083258 -8.894813 3.554234 129.429103 -54.473654 -160.814151 22.393948 11.392090 35.545849 -6.732117 -68.195740 14.621992 -144.795400 65.199138 -142.633510 -9.043252 -27.380366 6.953522 0.193551 -0.958478 0.156854 4.669588 -56.772186 0.372479 175.921160 61.031998 176.304669 -1.531665 -39.351762 2.835160 0.013979 0.107353 0.020283
-60.598223 43.830073 19.136716 174.171741 -22.812589 -1.377010 -0.030816 16.371527 2.909075 -0.047422 1.689393 0.348673 -0.065583 2.815763 0.582481 -0.076910 14.506796 3.005234 -0.504112 9.552343 -5.536272 0.774019 -15.650526 -5.945244 8.064414 2.448028 -4.986694 -12.823332 -9.073197 -5.437101 -118.003176 -55.672718 143.616061 -17.301752 1.906612 -43.336037 -13.763123 -0.364815 -5.098155 15.036155 -8.910630 3.654701 129.187362 -54.449391 -160.628529 22.408622 11.441966 35.512890 -6.693983 -68.197165 14.574939 -144.823471 65.198004 -142.648234 -9.032131 -27.354903 6.943059 0.206358 -0.950754 0.151399 4.696320 -56.768183 0.340612 175.895489 61.027316 176.294102 -1.529219 -39.358014 2.828843 0.011533 0.107600 0.020930
-60.604363 43.828185 19.131141 174.200129 -22.840209 -1.380111 -0.050296 16.390124 2.903338 -0.048159 1.691111 0.349105 -0.064205 2.819291 0.583571 -0.082659 14.512534 3.004171 -0.507568 9.557298 -5.535092 0.772687 -15.600808 -5.943233 8.069785 2.437955 -4.994921 -12.775125 -9.056404 -5.484571 -117.947149 -55.664361 143.591936 -17.287909 1.914257 -43.313535 -13.787790 -0.402953 -5.100599 14.989842 -8.928528 3.756568 128.942485 -54.418178 -160.441466 22.433884 11.487746 35.507681 -6.642992 -68.176595 14.493734 -144.978001 65.216729 -142.774298 -9.086637 -27.351419 6.939322 0.213308 -0.937132 0.146291 4.713928 -56.740500 0.292450 175.859953 61.022457 176.278114 -1.534284 -39.364653 2.821248 0.014100 0.108415 0.025698
-60.610153 43.825380 19.124985 174.227149 -22.866826 -1.381685 -0.063904 16.409788 2.899221 -0.042748 1.687020 0.351197 -0.074002 2.825175 0.582441 -0.090612 14.518279 3.002240 -0.506196 9.585052 -5.535022 0.767811 -15.573833 -5.939229 8.083642 2.427044 -5.019339 -12.730687 -9.036704 -5.515792 -117.903053 -55.658549 143.572919 -17.275731 1.924702 -43.300829 -13.809904 -0.437861 -5.104647 14.958098 -8.942993 3.838566 128.710197 -54.391367 -160.285693 22.467610 11.527434 35.527874 -6.600439 -68.157246 14.425794 -145.084197 65.219763 -142.854653 -9.152458 -27.358818 6.944598 0.213623 -0.916551 0.141868 4.717712 -56.713895 0.255706 175.845285 61.016359 176.271975 -1.532490 -39.372304 2.820170 0.017511 0.110754 0.026064
-60.618614 43.822152 19.116380 174.259142 -22.902276 -1.364404 -0.078948 16.423243 2.880428 -0.063496 1.706702 0.345924 -0.064511 2.820294 0.584277 -0.103492 14.525132 2.999568 -0.505202 9.609718 -5.535866 0.772813 -15.502759 -5.940423 8.118975 2.405369 -5.063944 -12.706817 -9.002173 -5.526815 -117.866360 -55.656835 143.561334 -17.266017 1.933266 -43.297359 -13.830149 -0.470026 -5.109815 14.932287 -8.962951 3.915914 128.479178 -54.363050 -160.133858 22.508325 11.558477 35.572469 -6.515014 -68.132097 14.305067 -145.187631 65.219105 -142.934675 -9.230178 -27.329046 6.947719 0.253807 -0.940633 0.150043 4.747117 -56.673991 0.178059 175.839531 61.013238 176.271217 -1.521158 -39.377926 2.818889 0.018839 0.108455 0.023108
-60.623963 43.816908 19.110036 174.274298 -22.921097 -1.356987 -0.081096 16.427914 2.874839 -0.066815 1.710164 0.344370 -0.061646 2.822246 0.585690 -0.100202 14.534890 2.994644 -0.515311 9.640835 -5.534107 0.762274 -15.514029 -5.934708 8.104642 2.398124 -5.064206 -12.654722 -8.998202 -5.567512 -117.825496 -55.657673 143.551803 -17.254720 1.938997 -43.294791 -13.868847 -0.503450 -5.107793 14.909587 -8.985127 3.987770 128.256307 -54.332787 -159.988434 22.554368 11.579209 35.642756 -6.476587 -68.116316 14.248957 -145.262123 65.213717 -142.997439 -9.257933 -27.387115 6.959949 0.284862 -0.896274 0.138673 4.784975 -56.655926 0.117644 175.806788 61.003564 176.256770 -1.518238 -39.386083 2.816743 0.016274 0.106066 0.019306
-60.627959 43.811296 19.102020 174.284317 -22.947705 -1.351773 -0.080668 16.443223 2.871941 -0.046368 1.696986 0.350401 -0.078361 2.837275 0.581671 -0.113095 14.543571 2.991265 -0.515002 9.650871 -5.534503 0.757887 -15.503518 -5.932970 8.122459 2.383630 -5.091771 -12.640462 -8.978895 -5.574401 -117.771296 -55.664185 143.547478 -17.243133 1.944036 -43.289127 -13.889083 -0.538968 -5.111969 14.882337 -9.007237 4.055266 128.058575 -54.303540 -159.851641 22.600584 11.595163 35.725914 -6.457179 -68.095006 14.221140 -145.293349 65.200946 -143.027339 -9.279807 -27.417368 6.969556 0.306307 -0.881898 0.140211 4.831047 -56.627696 0.050942 175.753778 60.991677 176.233586 -1.510941 -39.400730 2.815868 0.016825 0.105765 0.006814
-60.631575 43.804616 19.094211 174.288309 -22.970093 -1.344794 -0.082584 16.461743 2.865182 -0.034460 1.689602 0.354812 -0.082158 2.841920 0.580229 -0.110013 14.547948 2.990655 -0.511928 9.687476 -5.533851 0.738647 -15.498838 -5.926566 8.140866 2.337717 -5.142269 -12.664239 -8.920094 -5.542769 -117.703978 -55.678691 143.561441 -17.235927 1.947699 -43.285230 -13.916235 -0.576279 -5.115902 14.847605 -9.029290 4.117631 127.900962 -54.280820 -159.729930 22.638322 11.607796 35.804425 -6.446323 -68.081100 14.206393 -145.317564 65.183458 -143.055602 -9.289892 -27.439175 6.976008 0.322508 -0.883474 0.143342 4.846552 -56.604084 0.018845 175.730998 60.978518 176.220648 -1.511548 -39.417440 2.813360 0.019131 0.107099 0.003710
-60.641707 43.798652 19.081891 174.317660 -23.014165 -1.305660 -0.107419 16.493087 2.822876 -0.035990 1.690281 0.353724 -0.093017 2.851637 0.577037 -0.095390 14.548851 2.991433 -0.521479 9.703175 -5.532004 0.730406 -15.479346 -5.920443 8.136779 2.314220 -5.155619 -12.634265 -8.900517 -5.570417 -117.632328 -55.671238 143.539021 -17.231686 1.950627 -43.283252 -13.944527 -0.616383 -5.116582 14.812291 -9.052562 4.170829 127.780670 -54.268605 -159.625036 22.660670 11.613008 35.870318 -6.363204 -68.061208 14.080725 -145.371165 65.140680 -143.124436 -9.283604 -27.437147 6.985677 0.329308 -0.928165 0.147156 4.898135 -56.550243 -0.086833 175.703896 60.972531 176.194658 -1.518844 -39.428137 2.819387 0.020999 0.105144 0.002590
